<?xml version="1.0" encoding="utf-8"?>
<!-- Generator: Adobe Illustrator 15.0.0, SVG Export Plug-In . SVG Version: 6.00 Build 0)  -->
<!DOCTYPE svg PUBLIC "-//W3C//DTD SVG 1.1//EN" "http://www.w3.org/Graphics/SVG/1.1/DTD/svg11.dtd">
<svg version="1.1" id="Ebene_1" xmlns="http://www.w3.org/2000/svg" xmlns:xlink="http://www.w3.org/1999/xlink" x="0px" y="0px"
	 width="340.157px" height="113.386px" viewBox="0 0 340.157 113.386" enable-background="new 0 0 340.157 113.386"
	 xml:space="preserve">
<g>
	<defs>
		<rect id="SVGID_1_" width="340.157" height="113.386"/>
	</defs>
	<clipPath id="SVGID_2_">
		<use xlink:href="#SVGID_1_"  overflow="visible"/>
	</clipPath>
	<g clip-path="url(#SVGID_2_)">
		<path d="M21.412,80.738c2.586,5.172,6.746,11.019,13.267,11.019c5.846,0,9.444-3.373,9.444-8.882
			c0-12.816-31.705-10.006-31.705-33.391c0-14.953,10.23-24.734,25.184-24.734c11.693,0,18.663,4.497,24.622,14.279l-8.208,6.407
			c-3.26-5.621-6.633-10.792-13.94-10.792c-5.846,0-8.545,3.823-8.545,9.218c0,12.705,32.379,9.107,32.379,33.392
			c0,15.402-11.468,24.396-26.308,24.396c-12.029,0-20.461-4.047-26.42-14.615L21.412,80.738z"/>
		<path d="M90.893,50.833v29.006c0,5.959,1.125,11.243,8.207,11.243c4.948,0,7.646-3.935,7.646-8.656V50.833h8.094v32.604
			c0,11.13-8.319,16.638-19.9,16.638c-13.491,0-20.236-7.082-20.236-20.124V50.833H90.893z M85.159,41.726
			c-3.036,0-5.734-2.811-5.734-5.734c0-2.922,2.698-5.734,5.734-5.734c3.035,0,5.733,2.812,5.733,5.734
			C90.893,38.915,88.194,41.726,85.159,41.726 M103.935,41.726c-3.036,0-5.734-2.811-5.734-5.734c0-2.922,2.699-5.734,5.734-5.734
			c3.035,0,5.734,2.812,5.734,5.734C109.668,38.915,106.97,41.726,103.935,41.726"/>
		<path d="M128.781,50.833h25.521c8.544,0,16.302,5.621,16.302,14.84c0,6.295-2.923,10.792-9.219,12.366l14.054,21.587h-18.213
			l-11.244-23.947h0.226c5.958,0,8.208-3.599,8.208-9.332c0-5.621-3.486-8.769-7.646-8.769h-1.799v42.048h-16.19V50.833z"/>
		<path d="M199.947,99.626h-16.189V20.927h16.189V99.626z M213.776,99.626L200.51,76.579l14.953-25.746h9.669l-10.456,18.55
			l16.865,30.243H213.776z"/>
		<path d="M271.004,78.94h-15.289v10.118c0,2.136,1.349,3.373,4.047,3.373h13.828v7.195h-25.071c-5.171,0-8.994-3.71-8.994-9.669
			V61.289c0-6.633,5.172-10.456,11.019-10.456h22.26v7.195h-14.166c-2.136,0-2.922,1.687-2.922,4.386v9.331h15.289V78.94z"/>
		<path d="M322.947,91.981c0,4.272-0.9,8.095-5.959,8.095c-3.373,0-5.059-1.236-6.746-4.047l-17.088-27.657h-0.227v31.255h-8.094
			V59.49c0-3.935,0.786-9.107,8.432-9.107c4.835,0,7.195,2.361,9.669,6.296l11.693,18.55h0.225V50.383h8.095V91.981z"/>
	</g>
</g>
</svg>
